<?xml version="1.0" encoding="UTF-8"?>
<svg xmlns="http://www.w3.org/2000/svg" xmlns:xlink="http://www.w3.org/1999/xlink" width="32px" height="32px" viewBox="0 0 32 32" version="1.1">
<g id="surface1">
<path style=" stroke:none;fill-rule:nonzero;fill:rgb(10.980392%,84.313726%,34.901962%);fill-opacity:1;" d="M 5.34375 6.425781 L 9.605469 6.425781 C 9.605469 4.347656 7.953125 2.695312 5.875 2.695312 C 3.796875 2.695312 2.148438 4.347656 2.148438 6.425781 C 2.148438 8.503906 3.796875 10.15625 5.875 10.15625 C 6.726562 10.15625 7.527344 9.835938 8.167969 9.355469 Z M 5.34375 6.425781 "/>
<path style=" stroke:none;fill-rule:nonzero;fill:rgb(100%,86.666667%,3.529412%);fill-opacity:1;" d="M 23.992188 31.46875 L 11.203125 31.46875 L 13.496094 30.5625 C 15.304688 29.816406 16.53125 28.058594 16.53125 26.085938 L 16.53125 20.277344 L 18.664062 20.277344 L 18.664062 26.085938 C 18.664062 28.058594 19.835938 29.816406 21.699219 30.5625 Z M 23.992188 31.46875 "/>
<path style=" stroke:none;fill-rule:nonzero;fill:rgb(99.215686%,59.607846%,3.137255%);fill-opacity:1;" d="M 5.34375 6.425781 L 15.039062 16.601562 C 16 17.613281 16.53125 18.894531 16.53125 20.277344 L 18.664062 20.277344 C 18.664062 18.894531 19.195312 17.613281 20.15625 16.601562 L 29.851562 6.425781 Z M 5.34375 6.425781 "/>
<path style=" stroke:none;fill-rule:nonzero;fill:rgb(100%,86.666667%,3.529412%);fill-opacity:1;" d="M 5.875 6.425781 L 15.199219 16.601562 C 16.050781 17.613281 16.53125 18.894531 16.53125 20.277344 L 17.757812 20.277344 C 17.757812 18.894531 18.238281 17.613281 19.089844 16.601562 L 27.71875 6.425781 Z M 5.875 6.425781 "/>
<path style=" stroke:none;fill-rule:nonzero;fill:rgb(10.980392%,84.313726%,34.901962%);fill-opacity:1;" d="M 22.390625 12.285156 C 20.792969 13.726562 18.554688 13.726562 17.597656 12.285156 C 16.476562 10.847656 14.453125 10.847656 13.070312 12.285156 C 12.640625 12.660156 12.164062 12.980469 11.738281 13.140625 L 15.039062 16.601562 C 16 17.613281 16.53125 18.894531 16.53125 20.277344 L 18.664062 20.277344 C 18.664062 18.894531 19.195312 17.613281 20.15625 16.601562 L 25.269531 11.222656 C 24.308594 11.167969 23.191406 11.488281 22.390625 12.285156 "/>
<path style=" stroke:none;fill-rule:nonzero;fill:rgb(0%,0%,0%);fill-opacity:1;" d="M 23.992188 32 L 11.203125 32 C 10.9375 32 10.722656 31.839844 10.671875 31.574219 C 10.617188 31.308594 10.777344 31.09375 10.992188 30.988281 L 13.28125 30.082031 C 14.933594 29.441406 15.945312 27.898438 15.945312 26.140625 L 15.945312 20.277344 C 15.945312 19.957031 16.160156 19.746094 16.476562 19.746094 L 18.609375 19.746094 C 18.929688 19.746094 19.140625 19.957031 19.140625 20.277344 L 19.140625 26.085938 C 19.140625 27.84375 20.207031 29.390625 21.804688 30.027344 L 24.097656 30.933594 C 24.308594 31.039062 24.46875 31.253906 24.417969 31.519531 C 24.46875 31.839844 24.257812 32 23.992188 32 Z M 13.972656 30.933594 L 21.273438 30.933594 C 19.355469 30.082031 18.183594 28.21875 18.183594 26.085938 L 18.183594 20.8125 L 17.117188 20.8125 L 17.117188 26.085938 C 17.066406 28.21875 15.839844 30.082031 13.972656 30.933594 Z M 13.972656 30.933594 "/>
<path style=" stroke:none;fill-rule:nonzero;fill:rgb(0%,0%,0%);fill-opacity:1;" d="M 18.664062 20.8125 L 16.53125 20.8125 C 16.210938 20.8125 16 20.597656 16 20.277344 C 16 19.054688 15.519531 17.882812 14.667969 16.976562 L 4.96875 6.800781 C 4.808594 6.640625 4.757812 6.425781 4.863281 6.214844 C 4.917969 6 5.128906 5.894531 5.34375 5.894531 L 29.851562 5.894531 C 30.0625 5.894531 30.277344 6 30.332031 6.214844 C 30.4375 6.425781 30.382812 6.640625 30.222656 6.800781 L 20.527344 16.976562 C 19.675781 17.882812 19.195312 19.054688 19.195312 20.277344 C 19.195312 20.597656 18.984375 20.8125 18.664062 20.8125 Z M 17.066406 19.746094 L 18.183594 19.746094 C 18.289062 18.414062 18.875 17.1875 19.78125 16.230469 L 28.625 6.960938 L 6.570312 6.960938 L 15.464844 16.230469 C 16.371094 17.1875 16.90625 18.414062 17.066406 19.746094 Z M 17.066406 19.746094 "/>
<path style=" stroke:none;fill-rule:nonzero;fill:rgb(0%,0%,0%);fill-opacity:1;" d="M 18.664062 16.015625 C 18.609375 16.015625 18.554688 16.015625 18.503906 15.964844 C 18.238281 15.855469 18.078125 15.535156 18.183594 15.269531 L 22.976562 1.949219 C 23.03125 1.792969 23.136719 1.683594 23.351562 1.632812 L 28.679688 0.03125 C 28.945312 -0.0742188 29.265625 0.0859375 29.320312 0.40625 C 29.425781 0.671875 29.265625 0.992188 28.945312 1.046875 L 23.882812 2.589844 L 19.195312 15.644531 C 19.089844 15.855469 18.875 16.015625 18.664062 16.015625 Z M 18.664062 16.015625 "/>
<path style=" stroke:none;fill-rule:nonzero;fill:rgb(0%,0%,0%);fill-opacity:1;" d="M 18.664062 20.8125 L 16.53125 20.8125 C 16.210938 20.8125 16 20.597656 16 20.277344 C 16 19.054688 15.519531 17.882812 14.667969 16.976562 L 11.363281 13.511719 C 11.257812 13.40625 11.203125 13.191406 11.203125 13.03125 C 11.257812 12.871094 11.363281 12.714844 11.523438 12.660156 C 11.949219 12.5 12.324219 12.234375 12.695312 11.914062 C 13.496094 11.113281 14.613281 10.636719 15.625 10.6875 C 16.585938 10.742188 17.382812 11.222656 17.96875 11.96875 C 18.34375 12.554688 18.929688 12.765625 19.355469 12.820312 C 20.207031 12.925781 21.21875 12.605469 21.964844 11.914062 C 22.871094 11.0625 24.042969 10.636719 25.214844 10.742188 C 25.429688 10.742188 25.589844 10.902344 25.640625 11.0625 C 25.695312 11.273438 25.695312 11.488281 25.535156 11.59375 L 20.421875 16.976562 C 19.675781 17.882812 19.195312 19.054688 19.195312 20.277344 C 19.195312 20.597656 18.984375 20.8125 18.664062 20.8125 Z M 17.066406 19.746094 L 18.183594 19.746094 C 18.289062 18.414062 18.875 17.1875 19.78125 16.230469 L 23.832031 11.96875 C 23.457031 12.128906 23.085938 12.339844 22.765625 12.660156 C 21.753906 13.566406 20.472656 13.992188 19.300781 13.832031 C 18.394531 13.726562 17.652344 13.246094 17.171875 12.554688 C 16.796875 12.074219 16.210938 11.753906 15.625 11.753906 C 14.878906 11.699219 14.082031 12.019531 13.496094 12.660156 C 13.226562 12.925781 12.960938 13.140625 12.640625 13.300781 L 15.464844 16.230469 C 16.371094 17.1875 16.90625 18.414062 17.066406 19.746094 Z M 22.390625 12.285156 Z M 22.390625 12.285156 "/>
<path style=" stroke:none;fill-rule:nonzero;fill:rgb(0%,0%,0%);fill-opacity:1;" d="M 5.875 10.6875 C 3.53125 10.6875 1.613281 8.769531 1.613281 6.425781 C 1.613281 4.082031 3.53125 2.164062 5.875 2.164062 C 8.21875 2.164062 10.136719 4.082031 10.136719 6.425781 C 10.136719 6.746094 9.925781 6.960938 9.605469 6.960938 L 6.570312 6.960938 L 8.539062 8.984375 C 8.648438 9.089844 8.699219 9.25 8.699219 9.410156 C 8.699219 9.570312 8.59375 9.675781 8.488281 9.78125 C 7.742188 10.367188 6.835938 10.6875 5.875 10.6875 Z M 5.875 3.230469 C 4.117188 3.230469 2.679688 4.667969 2.679688 6.425781 C 2.679688 8.183594 4.117188 9.621094 5.875 9.621094 C 6.410156 9.621094 6.886719 9.515625 7.316406 9.25 L 4.96875 6.746094 C 4.808594 6.640625 4.757812 6.425781 4.863281 6.214844 C 4.917969 6 5.128906 5.894531 5.34375 5.894531 L 9.019531 5.894531 C 8.753906 4.402344 7.472656 3.230469 5.875 3.230469 Z M 5.875 3.230469 "/>
</g>
</svg>
